# xmcd
#
# Track frame offsets:
#	183
#	21533
#	43263
#	63770
#	88808
#	103913
#	127250
#	147863
#	165095
#	188548
#	207183
#	227838
#	243375
#	265100
#	288858
#	311180
#
# Disc length: 4406 seconds
#
# Revision: 1
# Processed by: cddbd v1.5.2PL0 Copyright (c) Steve Scherf et al.
# Submitted via: audiograbber 1.83.01
#
DISCID=e7113410
DTITLE=Stefan Waggershausen - Größte Hits
DYEAR=1900
DGENRE=
TTITLE0=Touche d'amour
TTITLE1=Ich hab' in mir 'ne Überdosis von dir 
TTITLE2=Das erste Mal tat's noch weh
TTITLE3=Rikki und Rossi
TTITLE4=Es geht mir gut
TTITLE5=Hallo Engel
TTITLE6=Königskind
TTITLE7=Anna mit Alarm im Herzen
TTITLE8=Tief im Süden meines Herzens
TTITLE9=Der Blues kam heimlich
TTITLE10=Laura
TTITLE11=Verzeih'n Sie, Madame
TTITLE12=Silbermond
TTITLE13=Fang mich auf
TTITLE14=Im Auge des taifuns
TTITLE15=Jesse
EXTD=Originalname ist Goldenstars, velegt von Club Exclusiv, Nr. 33 509 1
EXTT0=
EXTT1=
EXTT2=
EXTT3=
EXTT4=
EXTT5=
EXTT6=
EXTT7=
EXTT8=
EXTT9=
EXTT10=
EXTT11=
EXTT12=
EXTT13=
EXTT14=
EXTT15=
PLAYORDER=
